<svg xmlns="http://www.w3.org/2000/svg" xmlns:xlink="http://www.w3.org/1999/xlink" width="500" zoomAndPan="magnify" viewBox="0 0 375 374.999991" height="500" preserveAspectRatio="xMidYMid meet" version="1.2"><defs/><g id="25d152ebd0"><g style="fill:#3b82f6;fill-opacity:1;"><g transform="translate(32.793734, 286.124981)"><path style="stroke:none" d="M 35.203125 1.125 C 30.796875 1.125 26.90625 0.226562 23.53125 -1.5625 C 20.15625 -3.351562 17.570312 -5.828125 15.78125 -8.984375 C 14 -12.148438 13.109375 -15.726562 13.109375 -19.71875 C 13.109375 -23.71875 14 -27.296875 15.78125 -30.453125 C 17.570312 -33.617188 20.15625 -36.113281 23.53125 -37.9375 C 26.90625 -39.769531 30.796875 -40.6875 35.203125 -40.6875 C 39.691406 -40.6875 43.625 -39.789062 47 -38 C 50.375 -36.21875 52.953125 -33.742188 54.734375 -30.578125 C 56.523438 -27.421875 57.421875 -23.84375 57.421875 -19.84375 C 57.421875 -13.769531 55.398438 -8.753906 51.359375 -4.796875 C 47.328125 -0.847656 41.941406 1.125 35.203125 1.125 Z M 35.203125 1.125 "/></g></g><g style="fill:#1d4ed8;fill-opacity:1;"><g transform="translate(83.383575, 286.124981)"><path style="stroke:none" d="M 59.796875 0 L 23.71875 0 L 23.71875 -182.5 L 59.796875 -182.5 Z M 59.796875 0 "/></g></g><g style="fill:#1d4ed8;fill-opacity:1;"><g transform="translate(147.080515, 286.124981)"><path style="stroke:none" d="M 89.375 -182.5 C 119 -182.5 141.613281 -174.84375 157.21875 -159.53125 C 172.820312 -144.21875 180.625 -121.457031 180.625 -91.25 C 180.625 -61.125 172.820312 -38.382812 157.21875 -23.03125 C 141.613281 -7.675781 119 0 89.375 0 L 23.71875 0 L 23.71875 -182.5 Z M 87.25 -30.328125 C 106.0625 -30.328125 120.128906 -35.132812 129.453125 -44.75 C 138.773438 -54.363281 143.4375 -69.863281 143.4375 -91.25 C 143.4375 -112.632812 138.773438 -128.132812 129.453125 -137.75 C 120.128906 -147.363281 106.0625 -152.171875 87.25 -152.171875 L 59.796875 -152.171875 L 59.796875 -30.328125 Z M 87.25 -30.328125 "/></g></g></g></svg>