<svg class="w-6 h-6" width="24" height="24" viewBox="0 0 24 24" fill="none" xmlns="http://www.w3.org/2000/svg"><path d="M12.9213 20.4141C13.2177 20.0029 13.7834 19.875 14.2318 20.1338C14.6803 20.3927 14.8528 20.9469 14.6449 21.4092L14.5981 21.5C14.3348 21.9559 13.9562 22.3344 13.5004 22.5977C13.0445 22.8609 12.5268 22.9999 12.0004 23C11.4739 23 10.9564 22.8609 10.5004 22.5977C10.1013 22.3673 9.7614 22.0486 9.50626 21.667L9.40177 21.5L9.35489 21.4092C9.14705 20.9469 9.31958 20.3927 9.76798 20.1338C10.2164 19.875 10.7821 20.0029 11.0785 20.4141L11.1342 20.5L11.2065 20.6094C11.2861 20.7131 11.3864 20.8004 11.5004 20.8662C11.6523 20.9538 11.825 21 12.0004 21C12.1758 20.9999 12.3485 20.9539 12.5004 20.8662C12.6523 20.7785 12.7779 20.6519 12.8656 20.5L12.9213 20.4141Z" fill="#686583" style="fill-opacity:1;"/><path d="M16.9998 8C16.9998 6.67409 16.4734 5.40249 15.5359 4.46484C14.5982 3.52716 13.3259 3 11.9998 3C10.6738 3.00007 9.40224 3.52722 8.46462 4.46484C7.52702 5.40251 6.99978 6.67398 6.99978 8L6.99587 8.43359C6.95306 10.5585 6.59338 12.0774 6.03298 13.2637C5.44252 14.5136 4.65897 15.3205 4.00075 16H19.9998C19.3402 15.3201 18.5577 14.5128 17.9676 13.2637C17.3696 11.998 16.9998 10.3541 16.9998 8ZM18.9998 8C18.9998 10.1447 19.3357 11.4789 19.7752 12.4092C20.1056 13.1086 20.5128 13.6223 20.9763 14.125L21.4578 14.6309L21.4793 14.6543C21.7401 14.941 21.9123 15.2971 21.9744 15.6797C22.0364 16.0621 21.9865 16.4543 21.8299 16.8086C21.6731 17.1629 21.4163 17.4644 21.0916 17.6758C20.8073 17.8608 20.4811 17.9708 20.1443 17.9951L19.9998 18H3.99978C3.61216 17.9997 3.23261 17.8866 2.90798 17.6748C2.58334 17.463 2.32705 17.1613 2.17068 16.8066C2.01435 16.452 1.96453 16.0593 2.02712 15.6768C2.08974 15.2944 2.26212 14.9386 2.52321 14.6523L2.54372 14.6299L3.02517 14.125C3.48799 13.6225 3.894 13.1086 4.22439 12.4092C4.63638 11.537 4.95735 10.3099 4.99587 8.39258L4.99978 8C4.99978 6.14348 5.7378 4.36256 7.05056 3.0498C8.36322 1.73734 10.1435 1.00007 11.9998 1C13.8562 1 15.6372 1.73713 16.95 3.0498C18.2627 4.36256 18.9998 6.14348 18.9998 8Z" fill="#686583" style="fill-opacity:1;"/></svg>