<svg class="w-6 h-6" width="24" height="24" viewBox="0 0 24 24" fill="none" xmlns="http://www.w3.org/2000/svg"><path d="M17 20C17 18.6739 16.4728 17.4025 15.5352 16.4648C14.5975 15.5272 13.3261 15 12 15C10.6739 15 9.40253 15.5272 8.46484 16.4648C7.52716 17.4025 7 18.6739 7 20C7 20.5523 6.55228 21 6 21C5.44772 21 5 20.5523 5 20C5 18.1435 5.73705 16.3626 7.0498 15.0498C8.36256 13.7371 10.1435 13 12 13C13.8565 13 15.6374 13.7371 16.9502 15.0498C18.263 16.3626 19 18.1435 19 20C19 20.5523 18.5523 21 18 21C17.4477 21 17 20.5523 17 20Z" fill="#686583" style="fill-opacity:1;"/><path d="M15 10C15 8.34315 13.6569 7 12 7C10.3431 7 9 8.34315 9 10C9 11.6569 10.3431 13 12 13C13.6569 13 15 11.6569 15 10ZM17 10C17 12.7614 14.7614 15 12 15C9.23858 15 7 12.7614 7 10C7 7.23858 9.23858 5 12 5C14.7614 5 17 7.23858 17 10Z" fill="#686583" style="fill-opacity:1;"/><path d="M21 12C21 7.02944 16.9706 3 12 3C7.02944 3 3 7.02944 3 12C3 16.9706 7.02944 21 12 21C16.9706 21 21 16.9706 21 12ZM23 12C23 18.0751 18.0751 23 12 23C5.92487 23 1 18.0751 1 12C1 5.92487 5.92487 1 12 1C18.0751 1 23 5.92487 23 12Z" fill="#686583" style="fill-opacity:1;"/></svg>