<svg class="w-6 h-6" width="24" height="24" viewBox="0 0 24 24" fill="none" xmlns="http://www.w3.org/2000/svg"><path d="M20 5C20 3.89543 19.1046 3 18 3C16.8954 3 16 3.89543 16 5C16 6.10457 16.8954 7 18 7C19.1046 7 20 6.10457 20 5ZM22 5C22 7.20914 20.2091 9 18 9C15.7909 9 14 7.20914 14 5C14 2.79086 15.7909 1 18 1C20.2091 1 22 2.79086 22 5Z" fill="#686583" style="fill-opacity:1;"/><path d="M8 12C8 10.8954 7.10457 10 6 10C4.89543 10 4 10.8954 4 12C4 13.1046 4.89543 14 6 14C7.10457 14 8 13.1046 8 12ZM10 12C10 14.2091 8.20914 16 6 16C3.79086 16 2 14.2091 2 12C2 9.79086 3.79086 8 6 8C8.20914 8 10 9.79086 10 12Z" fill="#686583" style="fill-opacity:1;"/><path d="M20 19C20 17.8954 19.1046 17 18 17C16.8954 17 16 17.8954 16 19C16 20.1046 16.8954 21 18 21C19.1046 21 20 20.1046 20 19ZM22 19C22 21.2091 20.2091 23 18 23C15.7909 23 14 21.2091 14 19C14 16.7909 15.7909 15 18 15C20.2091 15 22 16.7909 22 19Z" fill="#686583" style="fill-opacity:1;"/><path d="M7.72574 13.0061C7.9864 12.559 8.54079 12.3895 9.00211 12.5989L9.0939 12.6457L15.923 16.6262L16.0089 16.6819C16.4189 16.9799 16.5449 17.546 16.2843 17.9934C16.0235 18.4409 15.4686 18.6106 15.007 18.4006L14.9162 18.3537L8.08609 14.3743L8.00113 14.3176C7.59122 14.0195 7.46505 13.4535 7.72574 13.0061Z" fill="#686583" style="fill-opacity:1;"/><path d="M14.9972 5.59887C15.4585 5.38924 16.0127 5.55904 16.2736 6.00609C16.5345 6.45316 16.4096 7.01918 16.0002 7.31762L15.9142 7.37328L9.09392 11.3537L9.0031 11.4006C8.54191 11.6105 7.98781 11.4412 7.72673 10.9944C7.44836 10.5174 7.6091 9.90458 8.0861 9.62621L14.9064 5.64672L14.9972 5.59887Z" fill="#686583" style="fill-opacity:1;"/></svg>