<svg class="w-6 h-6" width="24" height="24" viewBox="0 0 24 24" fill="none" xmlns="http://www.w3.org/2000/svg"><path d="M20 6.33203L17.501 3H6.49902L4 6.33203V20C4 20.2652 4.10543 20.5195 4.29297 20.707C4.48051 20.8946 4.73478 21 5 21H19C19.2652 21 19.5195 20.8946 19.707 20.707C19.8946 20.5195 20 20.2652 20 20V6.33203ZM22 20C22 20.7957 21.6837 21.5585 21.1211 22.1211C20.5585 22.6837 19.7957 23 19 23H5C4.20435 23 3.44152 22.6837 2.87891 22.1211C2.3163 21.5585 2 20.7956 2 20V6C2 5.78369 2.07045 5.57346 2.2002 5.40039L5.2002 1.40039L5.27539 1.31055C5.46295 1.11339 5.72451 1 6 1H18C18.3148 1 18.611 1.14858 18.7998 1.40039L21.7998 5.40039C21.9296 5.57346 22 5.78369 22 6V20Z" fill="#686583" style="fill-opacity:1;"/><path d="M21 5C21.5523 5 22 5.44772 22 6C22 6.55228 21.5523 7 21 7H3C2.44772 7 2 6.55228 2 6C2 5.44772 2.44772 5 3 5H21Z" fill="#686583" style="fill-opacity:1;"/><path d="M7 10C7 9.44772 7.44772 9 8 9C8.55228 9 9 9.44772 9 10C9 10.7956 9.3163 11.5585 9.87891 12.1211C10.4415 12.6837 11.2044 13 12 13L12.2969 12.9854C12.9835 12.9171 13.6289 12.6133 14.1211 12.1211C14.6837 11.5585 15 10.7956 15 10C15 9.44772 15.4477 9 16 9C16.5523 9 17 9.44772 17 10C17 11.3261 16.4728 12.5975 15.5352 13.5352C14.6561 14.4142 13.4838 14.9328 12.248 14.9941L12 15C10.6739 15 9.40253 14.4728 8.46484 13.5352C7.52716 12.5975 7 11.3261 7 10Z" fill="#686583" style="fill-opacity:1;"/></svg>